<svg width="80" height="38" viewBox="0 0 80 38" fill="none" xmlns="http://www.w3.org/2000/svg">
<rect x="20.5159" y="0.387096" width="5.49219" height="6.17589" rx="2.70967" fill="#A540F3" stroke="#A540F3" stroke-width="0.774193"/>
<rect x="60.6077" y="1.9363" width="4.47842" height="5.91095" rx="2.23921" transform="rotate(90 60.6077 1.9363)" fill="#A540F3" stroke="#A540F3" stroke-width="0.774193"/>
<path d="M11.2799 5.26364C11.6848 5.85291 12.4913 6.00128 13.0806 5.59643C13.6253 5.22124 14.1245 5.09089 14.5506 5.08347C14.9766 5.09089 15.4758 5.22124 16.0205 5.59643C16.6098 6.00128 17.4163 5.85291 17.8212 5.26364C18.2038 4.70723 18.0925 3.95793 17.5827 3.53399L17.5827 3.53293C17.0624 3.10052 16.0873 2.5971 14.8939 2.51443C14.8908 2.51443 14.8865 2.51443 14.8833 2.51337C14.8378 2.51019 14.7933 2.50807 14.7477 2.50595C14.6968 2.50383 14.647 2.50278 14.5972 2.50172C14.5845 2.50172 14.5728 2.50066 14.5601 2.50066C14.5569 2.50066 14.5548 2.50066 14.5516 2.50066C14.5484 2.50066 14.5463 2.50066 14.5431 2.50066C14.5304 2.50066 14.5188 2.50172 14.506 2.50172C14.4562 2.50172 14.4054 2.50383 14.3555 2.50595C14.31 2.50807 14.2644 2.51019 14.2199 2.51337C14.2167 2.51337 14.2125 2.51337 14.2093 2.51443C13.0159 2.59604 12.0409 3.10052 11.5205 3.53293L11.5215 3.53399C11.0086 3.95793 10.8963 4.70723 11.2799 5.26364Z" fill="#A540F3"/>
<path d="M71.792 31.4936C67.0107 31.4936 63.4425 26.8549 63.4425 20.4322C63.4425 13.2958 67.0463 8.26463 71.9704 8.26463C76.6091 8.26463 79.9989 12.9746 79.9989 19.5401C79.9989 26.5338 76.502 31.4936 71.792 31.4936ZM69.7225 16.864C69.7225 23.2867 70.6502 27.1761 72.0775 27.1761C73.0409 27.1761 73.7189 25.7488 73.7189 22.9299C73.7189 16.4358 72.7911 12.5465 71.3639 12.5465C70.4361 12.5465 69.7225 14.0094 69.7225 16.864Z" fill="#A540F3"/>
<path d="M53.2544 11.6331C53.2544 10.4913 53.253 8.69349 53.253 8.69349H59.2133C60.6405 8.69349 61.2828 9.33576 61.2828 10.763V25.1429C61.2828 26.5345 62.3533 27.5562 62.8885 28.0914C62.8885 28.0914 62.8885 28.6397 62.8885 29.2463C62.8885 30.4238 62.8885 31.0661 62.8885 31.0661H53.2835C53.2835 31.0661 53.2901 30.4238 53.2901 29.2463C53.2901 28.6397 53.2875 28.0914 53.2875 28.0914C53.8584 27.5562 54.9314 26.5345 54.9314 25.1429V14.6524C54.9314 13.4035 54.7173 12.6899 53.968 12.0476C53.6299 11.7577 53.2544 11.6331 53.2544 11.6331Z" fill="#A540F3"/>
<path d="M46.673 31.067C43.5687 31.067 42.4982 30.0322 42.4982 26.3927C42.4982 24.5372 42.7123 22.2536 42.9621 19.7202C43.3189 16.5088 43.4616 15.4383 43.4616 14.3679C43.4616 13.226 42.9786 13.226 41.3564 13.226L41.7111 10.2175C44.8325 8.51496 46.3907 5.37477 46.8188 4.80386C46.8188 4.80386 46.8871 4.8051 47.7434 4.8051C48.6355 4.8051 49.135 4.80411 49.135 4.80411V8.19488C49.135 8.62307 49.2778 8.69443 49.7416 8.69443H51.5971V10.9781V13.226H49.8487C49.2778 13.226 49.0637 13.4044 49.0637 14.2608L49.0994 25.0724C49.0994 26.2499 49.2421 26.6424 50.3839 27.3204L51.7041 28.0947C51.6685 29.0581 51.7041 31.067 51.7041 31.067H46.673Z" fill="#A540F3"/>
<path d="M33.4434 31.4948C31.7307 31.4948 27.7095 29.8343 26.6747 29.2277L27.77 25.3575C27.779 25.3268 27.788 25.2966 27.7972 25.267C28.0432 24.4685 28.3627 24.0373 28.9475 24.0373C29.6255 24.0373 30.0893 24.7509 31.0528 25.8571C31.9448 27.0346 32.8012 27.8909 33.6932 27.8909C34.4782 27.8909 35.0491 27.2487 35.0491 26.3209C35.0491 25.0721 34.2284 24.3227 32.1232 23.1452C28.9118 21.3255 27.3418 19.1132 27.3418 15.4023C27.3418 11.1918 30.3034 8.19451 34.2641 8.26587C35.7984 8.30156 36.8902 8.51292 38.2248 9.30065C38.6216 9.53483 39.1603 9.93174 39.4441 10.2155L38.7229 15.0098H38.0107H37.4577C36.6065 12.7396 34.7993 11.8341 33.8359 11.8341C33.0509 11.8341 32.5157 12.4407 32.5157 13.297C32.5157 14.3675 33.2293 14.9384 35.2989 16.0445C38.653 17.8643 40.1873 20.1836 40.1873 23.8946C40.1873 28.3191 37.2971 31.4948 33.4434 31.4948Z" fill="#A540F3"/>
<path d="M27.7972 25.267C28.0432 24.4685 28.3627 24.0373 28.9475 24.0373H28.1657L27.7972 25.267Z" fill="#A540F3"/>
<path d="M28.9475 24.0373C29.6255 24.0373 30.0893 24.7509 31.0528 25.8571L29.5124 24.0373H28.9475Z" fill="#A540F3"/>
<path d="M8.02929 25.1413C8.02929 26.5328 9.09974 27.5546 9.63497 28.0898V29.2447V31.0645H0.029982C0.029982 31.0645 0.0365436 30.4222 0.0365436 29.2447C0.0365436 28.6381 0.0339856 28.0898 0.0339856 28.0898C0.604896 27.5546 1.67651 26.5306 1.67651 25.139L1.67651 8.4755C1.67651 7.22664 0.711135 6.59954 -0.00250244 5.95726C-0.00250244 5.95726 -0.000538698 3.12417 -0.000538698 2.51758C-0.000538698 2.51758 0.677417 2.51662 1.71219 2.51662H6.0297C7.4213 2.51662 8.02789 3.12321 8.02789 4.51481L8.02929 25.1413Z" fill="#A540F3"/>
<path d="M10.1986 37.3108H13.134H18.1339C19.0625 37.3108 19.491 36.9894 19.8839 36.0966C20.7767 34.2395 21.5267 32.4538 22.2767 29.6324C23.0421 26.7673 23.7232 24.3509 24.2484 21.9896C24.7742 19.2338 25.0204 16.4759 25.2979 13.7755C25.3693 12.8827 25.5836 12.2399 25.9764 11.6684C26.2622 11.2756 26.4407 10.8113 26.4407 10.1328C26.4407 9.20421 25.8336 8.59708 25.0122 8.59708H21.6551C20.8337 8.59708 20.2266 9.31134 20.2266 10.2756C20.2266 11.0613 20.548 11.5256 20.9051 11.9899C21.3337 12.4541 21.4765 13.0255 21.3694 14.0255C21.2266 16.704 20.7053 19.7755 20.2053 21.954C20.0267 22.7397 19.4553 22.704 19.3125 21.9897C18.7768 19.9541 18.2623 17.0255 17.9052 14.2398C17.7623 12.9898 17.9409 12.347 18.3695 11.7756C18.7266 11.3827 19.0123 10.9542 19.0123 10.3113C19.0123 9.34706 18.3338 8.59708 17.4409 8.59708H11.6911C10.7982 8.59708 10.084 9.41849 10.084 10.4542C10.084 10.9899 10.1911 11.4899 10.5482 11.9184C10.9411 12.4184 11.1196 12.9184 11.2625 13.6684C11.7817 16.4437 12.3249 19.1923 13.0102 21.954C13.6907 24.6955 14.4592 27.4663 15.2768 30.1324C15.4911 30.811 15.4197 31.311 14.9911 31.811L12.384 34.8466L10.1986 37.3108Z" fill="#A540F3"/>
</svg>
